<mxfile host="app.diagrams.net" modified="2021-01-18T03:11:39.412Z" agent="5.0 (Windows NT 10.0; Win64; x64) AppleWebKit/537.36 (KHTML, like Gecko) Chrome/87.0.4280.141 Safari/537.36" etag="wJUDq24WPHPb0_VmjzJD" version="14.2.4" type="github">
  <diagram name="Page-1" id="74e2e168-ea6b-b213-b513-2b3c1d86103e">
    <mxGraphModel dx="1673" dy="896" grid="1" gridSize="10" guides="1" tooltips="1" connect="1" arrows="1" fold="1" page="1" pageScale="1" pageWidth="1100" pageHeight="850" background="#ffffff" math="0" shadow="0">
      <root>
        <mxCell id="0" />
        <mxCell id="1" parent="0" />
        <mxCell id="77e6c97f196da883-1" value="Telesale application flow" style="swimlane;html=1;childLayout=stackLayout;startSize=20;rounded=0;shadow=0;labelBackgroundColor=none;strokeWidth=1;fontFamily=Verdana;fontSize=14;align=center;" parent="1" vertex="1">
          <mxGeometry x="70" y="40" width="1300" height="1050" as="geometry" />
        </mxCell>
        <mxCell id="77e6c97f196da883-2" value="IT" style="swimlane;html=1;startSize=20;" parent="77e6c97f196da883-1" vertex="1">
          <mxGeometry y="20" width="160" height="1030" as="geometry" />
        </mxCell>
        <mxCell id="77e6c97f196da883-8" value="Receive leads" style="rounded=0;whiteSpace=wrap;html=1;shadow=0;labelBackgroundColor=none;strokeWidth=1;fontFamily=Verdana;fontSize=12;align=center;" parent="77e6c97f196da883-2" vertex="1">
          <mxGeometry x="20" y="60" width="120" height="60" as="geometry" />
        </mxCell>
        <mxCell id="77e6c97f196da883-3" value="System" style="swimlane;html=1;startSize=20;" parent="77e6c97f196da883-1" vertex="1">
          <mxGeometry x="160" y="20" width="160" height="1030" as="geometry" />
        </mxCell>
        <mxCell id="95zHoUdvvYVv4VrqxGdA-3" value="Policy execution" style="whiteSpace=wrap;html=1;rounded=0;shadow=0;fontFamily=Verdana;fontSize=12;strokeWidth=1;" vertex="1" parent="77e6c97f196da883-3">
          <mxGeometry x="20" y="200" width="120" height="60" as="geometry" />
        </mxCell>
        <mxCell id="95zHoUdvvYVv4VrqxGdA-5" value="" style="rhombus;whiteSpace=wrap;html=1;rounded=0;shadow=0;fontFamily=Verdana;fontSize=12;strokeWidth=1;" vertex="1" parent="77e6c97f196da883-3">
          <mxGeometry x="65" y="320" width="30" height="30" as="geometry" />
        </mxCell>
        <mxCell id="95zHoUdvvYVv4VrqxGdA-6" value="" style="edgeStyle=orthogonalEdgeStyle;rounded=0;orthogonalLoop=1;jettySize=auto;html=1;fontSize=12;" edge="1" parent="77e6c97f196da883-3" source="95zHoUdvvYVv4VrqxGdA-3" target="95zHoUdvvYVv4VrqxGdA-5">
          <mxGeometry relative="1" as="geometry" />
        </mxCell>
        <mxCell id="95zHoUdvvYVv4VrqxGdA-40" value="Pass" style="text;html=1;align=center;verticalAlign=middle;resizable=0;points=[];autosize=1;fontSize=12;" vertex="1" parent="77e6c97f196da883-3">
          <mxGeometry x="110" y="340" width="40" height="20" as="geometry" />
        </mxCell>
        <mxCell id="77e6c97f196da883-4" value="DC/CDL" style="swimlane;html=1;startSize=20;" parent="77e6c97f196da883-1" vertex="1">
          <mxGeometry x="320" y="20" width="160" height="1030" as="geometry" />
        </mxCell>
        <mxCell id="95zHoUdvvYVv4VrqxGdA-7" value="Check CIC/PCB" style="whiteSpace=wrap;html=1;rounded=0;shadow=0;fontFamily=Verdana;fontSize=12;strokeWidth=1;" vertex="1" parent="77e6c97f196da883-4">
          <mxGeometry x="20" y="305" width="120" height="60" as="geometry" />
        </mxCell>
        <mxCell id="95zHoUdvvYVv4VrqxGdA-9" value="" style="rhombus;whiteSpace=wrap;html=1;rounded=0;shadow=0;fontFamily=Verdana;fontSize=12;strokeWidth=1;" vertex="1" parent="77e6c97f196da883-4">
          <mxGeometry x="65" y="430" width="30" height="30" as="geometry" />
        </mxCell>
        <mxCell id="95zHoUdvvYVv4VrqxGdA-10" value="" style="edgeStyle=orthogonalEdgeStyle;rounded=0;orthogonalLoop=1;jettySize=auto;html=1;fontSize=12;" edge="1" parent="77e6c97f196da883-4" source="95zHoUdvvYVv4VrqxGdA-7" target="95zHoUdvvYVv4VrqxGdA-9">
          <mxGeometry relative="1" as="geometry" />
        </mxCell>
        <mxCell id="95zHoUdvvYVv4VrqxGdA-42" value="Pass" style="text;html=1;align=center;verticalAlign=middle;resizable=0;points=[];autosize=1;fontSize=12;" vertex="1" parent="77e6c97f196da883-4">
          <mxGeometry x="110" y="450" width="40" height="20" as="geometry" />
        </mxCell>
        <mxCell id="77e6c97f196da883-5" value="TLS/DE/CDL" style="swimlane;html=1;startSize=20;" parent="77e6c97f196da883-1" vertex="1">
          <mxGeometry x="480" y="20" width="160" height="1030" as="geometry" />
        </mxCell>
        <mxCell id="95zHoUdvvYVv4VrqxGdA-11" value="Call Customer &lt;br style=&quot;font-size: 12px;&quot;&gt;Get leads detail" style="whiteSpace=wrap;html=1;rounded=0;shadow=0;fontFamily=Verdana;fontSize=12;strokeWidth=1;" vertex="1" parent="77e6c97f196da883-5">
          <mxGeometry x="20" y="415" width="120" height="60" as="geometry" />
        </mxCell>
        <mxCell id="77e6c97f196da883-6" value="PV/CDL" style="swimlane;html=1;startSize=20;" parent="77e6c97f196da883-1" vertex="1">
          <mxGeometry x="640" y="20" width="180" height="1030" as="geometry" />
        </mxCell>
        <mxCell id="95zHoUdvvYVv4VrqxGdA-13" value="Phone KYC" style="whiteSpace=wrap;html=1;rounded=0;shadow=0;fontFamily=Verdana;fontSize=12;strokeWidth=1;" vertex="1" parent="77e6c97f196da883-6">
          <mxGeometry x="30" y="415" width="120" height="60" as="geometry" />
        </mxCell>
        <mxCell id="95zHoUdvvYVv4VrqxGdA-15" value="" style="rhombus;whiteSpace=wrap;html=1;rounded=0;shadow=0;fontFamily=Verdana;fontSize=12;strokeWidth=1;" vertex="1" parent="77e6c97f196da883-6">
          <mxGeometry x="75" y="540" width="30" height="30" as="geometry" />
        </mxCell>
        <mxCell id="95zHoUdvvYVv4VrqxGdA-16" value="" style="edgeStyle=orthogonalEdgeStyle;rounded=0;orthogonalLoop=1;jettySize=auto;html=1;fontSize=12;" edge="1" parent="77e6c97f196da883-6" source="95zHoUdvvYVv4VrqxGdA-13" target="95zHoUdvvYVv4VrqxGdA-15">
          <mxGeometry relative="1" as="geometry" />
        </mxCell>
        <mxCell id="95zHoUdvvYVv4VrqxGdA-44" value="Pass" style="text;html=1;align=center;verticalAlign=middle;resizable=0;points=[];autosize=1;fontSize=12;" vertex="1" parent="77e6c97f196da883-6">
          <mxGeometry x="120" y="560" width="40" height="20" as="geometry" />
        </mxCell>
        <mxCell id="77e6c97f196da883-7" value="FV" style="swimlane;html=1;startSize=20;" parent="77e6c97f196da883-1" vertex="1">
          <mxGeometry x="820" y="20" width="160" height="1030" as="geometry" />
        </mxCell>
        <mxCell id="95zHoUdvvYVv4VrqxGdA-17" value="FI&lt;br style=&quot;font-size: 12px;&quot;&gt;FII - FIV - FIC" style="whiteSpace=wrap;html=1;rounded=0;shadow=0;fontFamily=Verdana;fontSize=12;strokeWidth=1;" vertex="1" parent="77e6c97f196da883-7">
          <mxGeometry x="20" y="525" width="120" height="60" as="geometry" />
        </mxCell>
        <mxCell id="95zHoUdvvYVv4VrqxGdA-23" value="" style="rhombus;whiteSpace=wrap;html=1;rounded=0;shadow=0;fontFamily=Verdana;fontSize=12;strokeWidth=1;" vertex="1" parent="77e6c97f196da883-7">
          <mxGeometry x="65" y="650" width="30" height="30" as="geometry" />
        </mxCell>
        <mxCell id="95zHoUdvvYVv4VrqxGdA-24" value="" style="edgeStyle=orthogonalEdgeStyle;rounded=0;orthogonalLoop=1;jettySize=auto;html=1;fontSize=12;" edge="1" parent="77e6c97f196da883-7" source="95zHoUdvvYVv4VrqxGdA-17" target="95zHoUdvvYVv4VrqxGdA-23">
          <mxGeometry relative="1" as="geometry" />
        </mxCell>
        <mxCell id="95zHoUdvvYVv4VrqxGdA-47" value="Pass" style="text;html=1;align=center;verticalAlign=middle;resizable=0;points=[];autosize=1;fontSize=12;" vertex="1" parent="77e6c97f196da883-7">
          <mxGeometry x="110" y="670" width="40" height="20" as="geometry" />
        </mxCell>
        <mxCell id="95zHoUdvvYVv4VrqxGdA-19" value="UW" style="swimlane;html=1;startSize=20;" vertex="1" parent="77e6c97f196da883-1">
          <mxGeometry x="980" y="20" width="160" height="1030" as="geometry" />
        </mxCell>
        <mxCell id="95zHoUdvvYVv4VrqxGdA-25" value="Credit approval" style="whiteSpace=wrap;html=1;rounded=0;shadow=0;fontFamily=Verdana;fontSize=12;strokeWidth=1;" vertex="1" parent="95zHoUdvvYVv4VrqxGdA-19">
          <mxGeometry x="20" y="635" width="120" height="60" as="geometry" />
        </mxCell>
        <mxCell id="95zHoUdvvYVv4VrqxGdA-27" value="" style="rhombus;whiteSpace=wrap;html=1;rounded=0;shadow=0;fontFamily=Verdana;fontSize=12;strokeWidth=1;" vertex="1" parent="95zHoUdvvYVv4VrqxGdA-19">
          <mxGeometry x="65" y="760" width="30" height="30" as="geometry" />
        </mxCell>
        <mxCell id="95zHoUdvvYVv4VrqxGdA-28" value="" style="edgeStyle=orthogonalEdgeStyle;rounded=0;orthogonalLoop=1;jettySize=auto;html=1;fontSize=12;" edge="1" parent="95zHoUdvvYVv4VrqxGdA-19" source="95zHoUdvvYVv4VrqxGdA-25" target="95zHoUdvvYVv4VrqxGdA-27">
          <mxGeometry relative="1" as="geometry" />
        </mxCell>
        <mxCell id="95zHoUdvvYVv4VrqxGdA-49" value="Approve" style="text;html=1;align=center;verticalAlign=middle;resizable=0;points=[];autosize=1;fontSize=12;" vertex="1" parent="95zHoUdvvYVv4VrqxGdA-19">
          <mxGeometry x="100" y="780" width="60" height="20" as="geometry" />
        </mxCell>
        <mxCell id="95zHoUdvvYVv4VrqxGdA-21" value="Payment" style="swimlane;html=1;startSize=20;" vertex="1" parent="77e6c97f196da883-1">
          <mxGeometry x="1140" y="20" width="160" height="1030" as="geometry" />
        </mxCell>
        <mxCell id="95zHoUdvvYVv4VrqxGdA-29" value="Make disburse order" style="whiteSpace=wrap;html=1;rounded=0;shadow=0;fontFamily=Verdana;fontSize=12;strokeWidth=1;" vertex="1" parent="95zHoUdvvYVv4VrqxGdA-21">
          <mxGeometry x="20" y="745" width="120" height="60" as="geometry" />
        </mxCell>
        <mxCell id="95zHoUdvvYVv4VrqxGdA-34" style="edgeStyle=orthogonalEdgeStyle;rounded=0;orthogonalLoop=1;jettySize=auto;html=1;" edge="1" parent="95zHoUdvvYVv4VrqxGdA-21" source="95zHoUdvvYVv4VrqxGdA-31" target="95zHoUdvvYVv4VrqxGdA-33">
          <mxGeometry relative="1" as="geometry" />
        </mxCell>
        <mxCell id="95zHoUdvvYVv4VrqxGdA-31" value="Check disburse order" style="whiteSpace=wrap;html=1;rounded=0;shadow=0;fontFamily=Verdana;fontSize=12;strokeWidth=1;" vertex="1" parent="95zHoUdvvYVv4VrqxGdA-21">
          <mxGeometry x="20" y="850" width="120" height="60" as="geometry" />
        </mxCell>
        <mxCell id="95zHoUdvvYVv4VrqxGdA-32" value="" style="edgeStyle=orthogonalEdgeStyle;rounded=0;orthogonalLoop=1;jettySize=auto;html=1;fontSize=12;" edge="1" parent="95zHoUdvvYVv4VrqxGdA-21" source="95zHoUdvvYVv4VrqxGdA-29" target="95zHoUdvvYVv4VrqxGdA-31">
          <mxGeometry relative="1" as="geometry" />
        </mxCell>
        <mxCell id="95zHoUdvvYVv4VrqxGdA-33" value="" style="ellipse;html=1;shape=endState;fillColor=#000000;strokeColor=#000000;rounded=0;" vertex="1" parent="95zHoUdvvYVv4VrqxGdA-21">
          <mxGeometry x="65" y="970" width="30" height="30" as="geometry" />
        </mxCell>
        <mxCell id="95zHoUdvvYVv4VrqxGdA-8" value="" style="edgeStyle=orthogonalEdgeStyle;rounded=0;orthogonalLoop=1;jettySize=auto;html=1;fontSize=12;" edge="1" parent="77e6c97f196da883-1" source="95zHoUdvvYVv4VrqxGdA-5" target="95zHoUdvvYVv4VrqxGdA-7">
          <mxGeometry relative="1" as="geometry">
            <Array as="points">
              <mxPoint x="290" y="355" />
              <mxPoint x="290" y="355" />
            </Array>
          </mxGeometry>
        </mxCell>
        <mxCell id="95zHoUdvvYVv4VrqxGdA-12" value="" style="edgeStyle=orthogonalEdgeStyle;rounded=0;orthogonalLoop=1;jettySize=auto;html=1;fontSize=12;" edge="1" parent="77e6c97f196da883-1" source="95zHoUdvvYVv4VrqxGdA-9" target="95zHoUdvvYVv4VrqxGdA-11">
          <mxGeometry relative="1" as="geometry">
            <Array as="points">
              <mxPoint x="470" y="465" />
              <mxPoint x="470" y="465" />
            </Array>
          </mxGeometry>
        </mxCell>
        <mxCell id="95zHoUdvvYVv4VrqxGdA-14" value="" style="edgeStyle=orthogonalEdgeStyle;rounded=0;orthogonalLoop=1;jettySize=auto;html=1;fontSize=12;" edge="1" parent="77e6c97f196da883-1" source="95zHoUdvvYVv4VrqxGdA-11" target="95zHoUdvvYVv4VrqxGdA-13">
          <mxGeometry relative="1" as="geometry" />
        </mxCell>
        <mxCell id="95zHoUdvvYVv4VrqxGdA-18" value="" style="edgeStyle=orthogonalEdgeStyle;rounded=0;orthogonalLoop=1;jettySize=auto;html=1;fontSize=12;" edge="1" parent="77e6c97f196da883-1" source="95zHoUdvvYVv4VrqxGdA-15" target="95zHoUdvvYVv4VrqxGdA-17">
          <mxGeometry relative="1" as="geometry" />
        </mxCell>
        <mxCell id="95zHoUdvvYVv4VrqxGdA-26" value="" style="edgeStyle=orthogonalEdgeStyle;rounded=0;orthogonalLoop=1;jettySize=auto;html=1;fontSize=12;" edge="1" parent="77e6c97f196da883-1" source="95zHoUdvvYVv4VrqxGdA-23" target="95zHoUdvvYVv4VrqxGdA-25">
          <mxGeometry relative="1" as="geometry" />
        </mxCell>
        <mxCell id="95zHoUdvvYVv4VrqxGdA-30" value="" style="edgeStyle=orthogonalEdgeStyle;rounded=0;orthogonalLoop=1;jettySize=auto;html=1;fontSize=12;" edge="1" parent="77e6c97f196da883-1" source="95zHoUdvvYVv4VrqxGdA-27" target="95zHoUdvvYVv4VrqxGdA-29">
          <mxGeometry relative="1" as="geometry" />
        </mxCell>
        <mxCell id="95zHoUdvvYVv4VrqxGdA-35" style="edgeStyle=orthogonalEdgeStyle;rounded=0;orthogonalLoop=1;jettySize=auto;html=1;entryX=0;entryY=0.5;entryDx=0;entryDy=0;" edge="1" parent="77e6c97f196da883-1" source="95zHoUdvvYVv4VrqxGdA-5" target="95zHoUdvvYVv4VrqxGdA-33">
          <mxGeometry relative="1" as="geometry">
            <Array as="points">
              <mxPoint x="240" y="1005" />
            </Array>
          </mxGeometry>
        </mxCell>
        <mxCell id="95zHoUdvvYVv4VrqxGdA-41" value="Fail" style="edgeLabel;html=1;align=center;verticalAlign=middle;resizable=0;points=[];fontSize=12;" vertex="1" connectable="0" parent="95zHoUdvvYVv4VrqxGdA-35">
          <mxGeometry x="-0.9531" y="5" relative="1" as="geometry">
            <mxPoint as="offset" />
          </mxGeometry>
        </mxCell>
        <mxCell id="95zHoUdvvYVv4VrqxGdA-36" style="edgeStyle=orthogonalEdgeStyle;rounded=0;orthogonalLoop=1;jettySize=auto;html=1;entryX=0;entryY=0.5;entryDx=0;entryDy=0;" edge="1" parent="77e6c97f196da883-1" source="95zHoUdvvYVv4VrqxGdA-9" target="95zHoUdvvYVv4VrqxGdA-33">
          <mxGeometry relative="1" as="geometry">
            <Array as="points">
              <mxPoint x="400" y="1005" />
            </Array>
          </mxGeometry>
        </mxCell>
        <mxCell id="95zHoUdvvYVv4VrqxGdA-43" value="Fail" style="edgeLabel;html=1;align=center;verticalAlign=middle;resizable=0;points=[];fontSize=12;" vertex="1" connectable="0" parent="95zHoUdvvYVv4VrqxGdA-36">
          <mxGeometry x="-0.9144" y="-1" relative="1" as="geometry">
            <mxPoint as="offset" />
          </mxGeometry>
        </mxCell>
        <mxCell id="95zHoUdvvYVv4VrqxGdA-37" style="edgeStyle=orthogonalEdgeStyle;rounded=0;orthogonalLoop=1;jettySize=auto;html=1;entryX=0;entryY=0.5;entryDx=0;entryDy=0;" edge="1" parent="77e6c97f196da883-1" source="95zHoUdvvYVv4VrqxGdA-15" target="95zHoUdvvYVv4VrqxGdA-33">
          <mxGeometry relative="1" as="geometry">
            <Array as="points">
              <mxPoint x="730" y="1005" />
            </Array>
          </mxGeometry>
        </mxCell>
        <mxCell id="95zHoUdvvYVv4VrqxGdA-46" value="Fail" style="edgeLabel;html=1;align=center;verticalAlign=middle;resizable=0;points=[];fontSize=12;" vertex="1" connectable="0" parent="95zHoUdvvYVv4VrqxGdA-37">
          <mxGeometry x="-0.9183" y="-2" relative="1" as="geometry">
            <mxPoint as="offset" />
          </mxGeometry>
        </mxCell>
        <mxCell id="95zHoUdvvYVv4VrqxGdA-38" style="edgeStyle=orthogonalEdgeStyle;rounded=0;orthogonalLoop=1;jettySize=auto;html=1;entryX=0;entryY=0.5;entryDx=0;entryDy=0;" edge="1" parent="77e6c97f196da883-1" source="95zHoUdvvYVv4VrqxGdA-23" target="95zHoUdvvYVv4VrqxGdA-33">
          <mxGeometry relative="1" as="geometry">
            <Array as="points">
              <mxPoint x="900" y="1005" />
            </Array>
          </mxGeometry>
        </mxCell>
        <mxCell id="95zHoUdvvYVv4VrqxGdA-48" value="Fail" style="edgeLabel;html=1;align=center;verticalAlign=middle;resizable=0;points=[];fontSize=12;" vertex="1" connectable="0" parent="95zHoUdvvYVv4VrqxGdA-38">
          <mxGeometry x="-0.8828" y="1" relative="1" as="geometry">
            <mxPoint as="offset" />
          </mxGeometry>
        </mxCell>
        <mxCell id="95zHoUdvvYVv4VrqxGdA-39" style="edgeStyle=orthogonalEdgeStyle;rounded=0;orthogonalLoop=1;jettySize=auto;html=1;entryX=0;entryY=0.5;entryDx=0;entryDy=0;" edge="1" parent="77e6c97f196da883-1" source="95zHoUdvvYVv4VrqxGdA-27" target="95zHoUdvvYVv4VrqxGdA-33">
          <mxGeometry relative="1" as="geometry">
            <Array as="points">
              <mxPoint x="1060" y="1005" />
            </Array>
          </mxGeometry>
        </mxCell>
        <mxCell id="95zHoUdvvYVv4VrqxGdA-50" value="Reject" style="edgeLabel;html=1;align=center;verticalAlign=middle;resizable=0;points=[];fontSize=12;" vertex="1" connectable="0" parent="95zHoUdvvYVv4VrqxGdA-39">
          <mxGeometry x="-0.7655" y="4" relative="1" as="geometry">
            <mxPoint as="offset" />
          </mxGeometry>
        </mxCell>
        <mxCell id="95zHoUdvvYVv4VrqxGdA-4" value="" style="edgeStyle=orthogonalEdgeStyle;rounded=0;orthogonalLoop=1;jettySize=auto;html=1;fontSize=12;" edge="1" parent="1" source="95zHoUdvvYVv4VrqxGdA-1" target="95zHoUdvvYVv4VrqxGdA-3">
          <mxGeometry relative="1" as="geometry" />
        </mxCell>
        <mxCell id="95zHoUdvvYVv4VrqxGdA-1" value="Check dedupe leads" style="whiteSpace=wrap;html=1;rounded=0;shadow=0;fontFamily=Verdana;fontSize=12;strokeWidth=1;" vertex="1" parent="1">
          <mxGeometry x="90" y="260" width="120" height="60" as="geometry" />
        </mxCell>
        <mxCell id="95zHoUdvvYVv4VrqxGdA-2" value="" style="edgeStyle=orthogonalEdgeStyle;rounded=0;orthogonalLoop=1;jettySize=auto;html=1;fontSize=12;" edge="1" parent="1" source="77e6c97f196da883-8" target="95zHoUdvvYVv4VrqxGdA-1">
          <mxGeometry relative="1" as="geometry" />
        </mxCell>
      </root>
    </mxGraphModel>
  </diagram>
</mxfile>
